<svg width="43" height="37" viewBox="0 0 43 37" fill="none" xmlns="http://www.w3.org/2000/svg">
<path d="M40.4169 -0.00332642L32.2294 1.42667L37.9377 7.91667L42.0419 7.18334L40.4169 -0.00332642ZM26.1044 2.49001L22.0002 3.20501L27.7294 9.67667L31.8127 8.96167L26.1044 2.49001ZM15.8961 4.25001L11.7919 5.00167L17.5211 11.4733L21.6044 10.7583L15.8961 4.25001ZM5.66689 6.08334L3.62523 6.43167C2.54269 6.62201 1.59023 7.18261 0.976979 7.99038C0.363727 8.79816 0.13981 9.78708 0.354394 10.74L1.16689 14.3333L11.3752 12.555L5.66689 6.08334ZM1.16689 14.3333V32.6667C1.16689 34.7017 3.04189 36.3333 5.33356 36.3333H38.6669C40.9794 36.3333 42.8336 34.7017 42.8336 32.6667V14.3333H1.16689Z" fill="white"/>
</svg>
